<mxfile host="app.diagrams.net" modified="2020-12-13T12:48:45.481Z" agent="5.0 (Macintosh; Intel Mac OS X 10_15_5) AppleWebKit/537.36 (KHTML, like Gecko) Chrome/81.0.4044.138 Safari/537.36" etag="pkvUsVQPELN9jr0WNMNY" version="14.0.1" type="github">
  <diagram name="Page-1" id="7a6c530e-6e37-e111-ec74-82921da8cc10">
    <mxGraphModel dx="2377" dy="1285" grid="1" gridSize="10" guides="1" tooltips="1" connect="1" arrows="1" fold="1" page="1" pageScale="1.5" pageWidth="1169" pageHeight="826" background="#184380" math="0" shadow="0">
      <root>
        <mxCell id="0" style=";html=1;" />
        <mxCell id="1" style=";html=1;" parent="0" />
        <mxCell id="yIpIltlEC2JnfB4PXRsr-127" value="" style="edgeStyle=orthogonalEdgeStyle;rounded=0;orthogonalLoop=1;jettySize=auto;html=1;" edge="1" parent="1">
          <mxGeometry relative="1" as="geometry">
            <mxPoint x="1803" y="100" as="sourcePoint" />
            <mxPoint x="1803" y="20" as="targetPoint" />
          </mxGeometry>
        </mxCell>
        <mxCell id="yIpIltlEC2JnfB4PXRsr-10" value="&lt;div&gt;&lt;span style=&quot;font-size: 72px&quot;&gt;Guest OS&lt;/span&gt;&lt;/div&gt;" style="whiteSpace=wrap;html=1;rounded=1;shadow=0;strokeColor=#10739e;strokeWidth=2;fillColor=#b1ddf0;fontSize=20;fontColor=#FFFFFF;align=center;arcSize=3;verticalAlign=top;spacingTop=4;" vertex="1" parent="1">
          <mxGeometry x="494" y="441" width="686" height="179" as="geometry" />
        </mxCell>
        <mxCell id="yIpIltlEC2JnfB4PXRsr-17" style="edgeStyle=orthogonalEdgeStyle;rounded=0;orthogonalLoop=1;jettySize=auto;html=1;exitX=0.25;exitY=1;exitDx=0;exitDy=0;" edge="1" parent="1">
          <mxGeometry relative="1" as="geometry">
            <mxPoint x="665.5" y="840" as="sourcePoint" />
            <mxPoint x="666" y="740" as="targetPoint" />
          </mxGeometry>
        </mxCell>
        <mxCell id="yIpIltlEC2JnfB4PXRsr-19" style="edgeStyle=orthogonalEdgeStyle;rounded=0;orthogonalLoop=1;jettySize=auto;html=1;" edge="1" parent="1">
          <mxGeometry relative="1" as="geometry">
            <mxPoint x="837.0588235294122" y="840" as="sourcePoint" />
            <mxPoint x="837.0588235294122" y="810" as="targetPoint" />
          </mxGeometry>
        </mxCell>
        <mxCell id="yIpIltlEC2JnfB4PXRsr-20" value="" style="whiteSpace=wrap;html=1;rounded=1;shadow=0;strokeColor=#10739e;strokeWidth=2;fillColor=#b1ddf0;fontSize=20;fontColor=#FFFFFF;align=center;arcSize=3;verticalAlign=top;spacingTop=4;" vertex="1" parent="1">
          <mxGeometry x="494" y="619" width="686" height="260" as="geometry" />
        </mxCell>
        <mxCell id="yIpIltlEC2JnfB4PXRsr-25" value="&lt;span style=&quot;font-size: 72px&quot;&gt;Hardware&lt;/span&gt;" style="whiteSpace=wrap;html=1;rounded=1;shadow=0;strokeColor=#10739e;strokeWidth=2;fillColor=#b1ddf0;fontSize=20;fontColor=#FFFFFF;align=center;arcSize=3;verticalAlign=top;spacingTop=4;" vertex="1" parent="1">
          <mxGeometry x="494" y="879" width="686" height="179" as="geometry" />
        </mxCell>
        <mxCell id="yIpIltlEC2JnfB4PXRsr-128" value="&lt;div&gt;&lt;span style=&quot;font-size: 72px&quot;&gt;Guest OS&lt;/span&gt;&lt;/div&gt;" style="whiteSpace=wrap;html=1;rounded=1;shadow=0;strokeColor=#10739e;strokeWidth=2;fillColor=#b1ddf0;fontSize=20;fontColor=#FFFFFF;align=center;arcSize=3;verticalAlign=top;spacingTop=4;" vertex="1" parent="1">
          <mxGeometry x="380" y="210" width="686" height="179" as="geometry" />
        </mxCell>
        <mxCell id="yIpIltlEC2JnfB4PXRsr-129" style="edgeStyle=orthogonalEdgeStyle;rounded=0;orthogonalLoop=1;jettySize=auto;html=1;exitX=0.25;exitY=1;exitDx=0;exitDy=0;" edge="1" parent="1">
          <mxGeometry relative="1" as="geometry">
            <mxPoint x="551.5" y="609" as="sourcePoint" />
            <mxPoint x="552" y="509" as="targetPoint" />
          </mxGeometry>
        </mxCell>
        <mxCell id="yIpIltlEC2JnfB4PXRsr-130" style="edgeStyle=orthogonalEdgeStyle;rounded=0;orthogonalLoop=1;jettySize=auto;html=1;" edge="1" parent="1">
          <mxGeometry relative="1" as="geometry">
            <mxPoint x="723.0588235294122" y="609" as="sourcePoint" />
            <mxPoint x="723.0588235294122" y="579" as="targetPoint" />
          </mxGeometry>
        </mxCell>
        <mxCell id="yIpIltlEC2JnfB4PXRsr-131" value="" style="whiteSpace=wrap;html=1;rounded=1;shadow=0;strokeColor=#10739e;strokeWidth=2;fillColor=#b1ddf0;fontSize=20;fontColor=#FFFFFF;align=center;arcSize=3;verticalAlign=top;spacingTop=4;" vertex="1" parent="1">
          <mxGeometry x="380" y="388" width="686" height="260" as="geometry" />
        </mxCell>
        <mxCell id="yIpIltlEC2JnfB4PXRsr-132" value="&lt;span style=&quot;font-size: 72px&quot;&gt;Hardware&lt;/span&gt;" style="whiteSpace=wrap;html=1;rounded=1;shadow=0;strokeColor=#10739e;strokeWidth=2;fillColor=#b1ddf0;fontSize=20;fontColor=#FFFFFF;align=center;arcSize=3;verticalAlign=top;spacingTop=4;" vertex="1" parent="1">
          <mxGeometry x="380" y="650" width="686" height="175" as="geometry" />
        </mxCell>
        <mxCell id="yIpIltlEC2JnfB4PXRsr-133" value="&lt;div&gt;&lt;span style=&quot;font-size: 72px&quot;&gt;Guest OS&lt;/span&gt;&lt;/div&gt;" style="whiteSpace=wrap;html=1;rounded=1;shadow=0;strokeColor=#10739e;strokeWidth=2;fillColor=#b1ddf0;fontSize=20;fontColor=#FFFFFF;align=center;arcSize=3;verticalAlign=top;spacingTop=4;" vertex="1" parent="1">
          <mxGeometry x="1340" y="470" width="686" height="179" as="geometry" />
        </mxCell>
        <mxCell id="yIpIltlEC2JnfB4PXRsr-134" value="" style="whiteSpace=wrap;html=1;rounded=1;shadow=0;strokeColor=#10739e;strokeWidth=2;fillColor=#b1ddf0;fontSize=20;fontColor=#FFFFFF;align=center;arcSize=3;verticalAlign=top;spacingTop=4;" vertex="1" parent="1">
          <mxGeometry x="1340" y="648" width="686" height="260" as="geometry" />
        </mxCell>
        <mxCell id="yIpIltlEC2JnfB4PXRsr-135" value="&lt;span style=&quot;font-size: 72px&quot;&gt;Hardware&lt;/span&gt;" style="whiteSpace=wrap;html=1;rounded=1;shadow=0;strokeColor=#10739e;strokeWidth=2;fillColor=#b1ddf0;fontSize=20;fontColor=#FFFFFF;align=center;arcSize=3;verticalAlign=top;spacingTop=4;" vertex="1" parent="1">
          <mxGeometry x="1340" y="910" width="686" height="175" as="geometry" />
        </mxCell>
      </root>
    </mxGraphModel>
  </diagram>
</mxfile>
